<?xml version="1.0" encoding="utf-8"?>
<!-- Generator: Adobe Illustrator 16.0.0, SVG Export Plug-In . SVG Version: 6.00 Build 0)  -->
<!DOCTYPE svg PUBLIC "-//W3C//DTD SVG 1.1//EN" "http://www.w3.org/Graphics/SVG/1.1/DTD/svg11.dtd">
<svg version="1.1" id="Layer_67" xmlns="http://www.w3.org/2000/svg" xmlns:xlink="http://www.w3.org/1999/xlink" x="0px" y="0px"
	 width="16px" height="16px" viewBox="0 0 16 16" enable-background="new 0 0 16 16" xml:space="preserve">
<path d="M4.115,13.941c0,1.138-0.92,2.057-2.056,2.057c-1.137,0-2.058-0.919-2.058-2.057c0-1.137,0.921-2.054,2.058-2.054
	C3.195,11.888,4.115,12.805,4.115,13.941z M0,6l0,2.971c3.882,0,7.027,3.147,7.027,7.027L10,16C10,10.509,5.49,6,0,6z M0,0.998v3
	c6.626,0,12,5.374,12,12h3C15,7.715,8.283,0.998,0,0.998z"/>
</svg>
